<?xml version="1.0" encoding="UTF-8" standalone="no"?>
<!-- Generator: Adobe Illustrator 19.0.0, SVG Export Plug-In . SVG Version: 6.00 Build 0)  -->

<svg
   xmlns:dc="http://purl.org/dc/elements/1.1/"
   xmlns:cc="http://creativecommons.org/ns#"
   xmlns:rdf="http://www.w3.org/1999/02/22-rdf-syntax-ns#"
   xmlns:svg="http://www.w3.org/2000/svg"
   xmlns="http://www.w3.org/2000/svg"
   xmlns:sodipodi="http://sodipodi.sourceforge.net/DTD/sodipodi-0.dtd"
   xmlns:inkscape="http://www.inkscape.org/namespaces/inkscape"
   version="1.1"
   id="Capa_1"
   x="0px"
   y="0px"
   viewBox="0 0 64 64"
   xml:space="preserve"
   sodipodi:docname="audio.svg"
   width="64"
   height="64"
   inkscape:version="0.92.4 (5da689c313, 2019-01-14)"><metadata
   id="metadata3821"><rdf:RDF><cc:Work
       rdf:about=""><dc:format>image/svg+xml</dc:format><dc:type
         rdf:resource="http://purl.org/dc/dcmitype/StillImage" /><dc:title></dc:title></cc:Work></rdf:RDF></metadata><defs
   id="defs3819" /><sodipodi:namedview
   pagecolor="#ffffff"
   bordercolor="#666666"
   borderopacity="1"
   objecttolerance="10"
   gridtolerance="10"
   guidetolerance="10"
   inkscape:pageopacity="0"
   inkscape:pageshadow="2"
   inkscape:window-width="2560"
   inkscape:window-height="1377"
   id="namedview3817"
   showgrid="false"
   inkscape:zoom="6.6733202"
   inkscape:cx="24.63025"
   inkscape:cy="42.047563"
   inkscape:window-x="-8"
   inkscape:window-y="-8"
   inkscape:window-maximized="1"
   inkscape:current-layer="Capa_1" />
<g
   id="g3772"
   transform="matrix(0.11302344,0,0,0.14222222,3.066,-4.4088878)">
	<g
   id="g3770">
		<path
   d="M 256,31 C 115.39,31 0,145.39 0,286 v 120 c 0,24.814 20.186,45 45,45 H 60 V 301 H 45 c -5.284,0 -10.285,1.082 -15,2.763 V 286 C 30,161.928 131.928,61 256,61 380.072,61 482,161.928 482,286 v 17.763 C 477.285,302.082 472.284,301 467,301 h -15 v 150 h 15 c 24.814,0 45,-20.186 45,-45 V 286 C 512,145.39 396.61,31 256,31 Z"
   id="path3768"
   inkscape:connector-curvature="0" />
	</g>
</g>
<g
   id="g3778"
   transform="matrix(0.11302344,0,0,0.14222222,3.066,-4.4088878)">
	<g
   id="g3776">
		<path
   d="m 135,271 h -15 c -16.569,0 -30,13.431 -30,30 v 150 c 0,16.569 13.431,30 30,30 h 15 c 8.284,0 15,-6.716 15,-15 V 286 c 0,-8.284 -6.716,-15 -15,-15 z"
   id="path3774"
   inkscape:connector-curvature="0" />
	</g>
</g>
<g
   id="g3784"
   transform="matrix(0.11302344,0,0,0.14222222,3.066,-4.4088878)">
	<g
   id="g3782">
		<path
   d="m 392,271 h -15 c -8.284,0 -15,6.716 -15,15 v 180 c 0,8.284 6.716,15 15,15 h 15 c 16.569,0 30,-13.431 30,-30 V 301 c 0,-16.569 -13.431,-30 -30,-30 z"
   id="path3780"
   inkscape:connector-curvature="0" />
	</g>
</g>
<g
   id="g3786"
   transform="matrix(0.11302344,0,0,0.14222222,3.066,-4.4088878)">
</g>
<g
   id="g3788"
   transform="matrix(0.11302344,0,0,0.14222222,3.066,-4.4088878)">
</g>
<g
   id="g3790"
   transform="matrix(0.11302344,0,0,0.14222222,3.066,-4.4088878)">
</g>
<g
   id="g3792"
   transform="matrix(0.11302344,0,0,0.14222222,3.066,-4.4088878)">
</g>
<g
   id="g3794"
   transform="matrix(0.11302344,0,0,0.14222222,3.066,-4.4088878)">
</g>
<g
   id="g3796"
   transform="matrix(0.11302344,0,0,0.14222222,3.066,-4.4088878)">
</g>
<g
   id="g3798"
   transform="matrix(0.11302344,0,0,0.14222222,3.066,-4.4088878)">
</g>
<g
   id="g3800"
   transform="matrix(0.11302344,0,0,0.14222222,3.066,-4.4088878)">
</g>
<g
   id="g3802"
   transform="matrix(0.11302344,0,0,0.14222222,3.066,-4.4088878)">
</g>
<g
   id="g3804"
   transform="matrix(0.11302344,0,0,0.14222222,3.066,-4.4088878)">
</g>
<g
   id="g3806"
   transform="matrix(0.11302344,0,0,0.14222222,3.066,-4.4088878)">
</g>
<g
   id="g3808"
   transform="matrix(0.11302344,0,0,0.14222222,3.066,-4.4088878)">
</g>
<g
   id="g3810"
   transform="matrix(0.11302344,0,0,0.14222222,3.066,-4.4088878)">
</g>
<g
   id="g3812"
   transform="matrix(0.11302344,0,0,0.14222222,3.066,-4.4088878)">
</g>
<g
   id="g3814"
   transform="matrix(0.11302344,0,0,0.14222222,3.066,-4.4088878)">
</g>
</svg>