<?xml version="1.0" encoding="UTF-8" standalone="no"?>
<svg
   xmlns:dc="http://purl.org/dc/elements/1.1/"
   xmlns:cc="http://creativecommons.org/ns#"
   xmlns:rdf="http://www.w3.org/1999/02/22-rdf-syntax-ns#"
   xmlns:svg="http://www.w3.org/2000/svg"
   xmlns="http://www.w3.org/2000/svg"
   xmlns:sodipodi="http://sodipodi.sourceforge.net/DTD/sodipodi-0.dtd"
   xmlns:inkscape="http://www.inkscape.org/namespaces/inkscape"
   id="Capa_1"
   enable-background="new 0 0 488.455 488.455"
   height="64"
   viewBox="0 0 61.056875 61.056875"
   width="64"
   version="1.1"
   sodipodi:docname="camera_on.svg"
   inkscape:export-filename="C:\git\coronachat2\src\assets\images\camera_off.png"
   inkscape:export-xdpi="96"
   inkscape:export-ydpi="96"
   inkscape:version="0.92.4 (5da689c313, 2019-01-14)">
  <metadata
     id="metadata5293">
    <rdf:RDF>
      <cc:Work
         rdf:about="">
        <dc:format>image/svg+xml</dc:format>
        <dc:type
           rdf:resource="http://purl.org/dc/dcmitype/StillImage" />
        <dc:title></dc:title>
      </cc:Work>
    </rdf:RDF>
  </metadata>
  <defs
     id="defs5291" />
  <sodipodi:namedview
     pagecolor="#ffffff"
     bordercolor="#666666"
     borderopacity="1"
     objecttolerance="10"
     gridtolerance="10"
     guidetolerance="10"
     inkscape:pageopacity="0"
     inkscape:pageshadow="2"
     inkscape:window-width="2560"
     inkscape:window-height="1377"
     id="namedview5289"
     showgrid="false"
     inkscape:zoom="5.2149125"
     inkscape:cx="8.6945339"
     inkscape:cy="29.297723"
     inkscape:window-x="-8"
     inkscape:window-y="-8"
     inkscape:window-maximized="1"
     inkscape:current-layer="Capa_1" />
  <path
     d="m 35.924426,27.039551 c 2.980619,2.980635 2.980619,7.813151 0,10.793785 -2.980618,2.980635 -7.813109,2.980635 -10.793727,0 -2.980619,-2.980634 -2.980619,-7.81315 0,-10.793785 2.980618,-2.980634 7.813109,-2.980634 10.793727,0"
     id="path5284"
     inkscape:connector-curvature="0"
     style="stroke-width:0.12500007" />
  <path
     d="M 53.424516,11.4475 H 48.151151 L 44.333159,3.8151007 H 16.719966 L 12.905599,11.45125 7.6397344,11.46065 C 3.441618,11.46815 0.02412495,14.889286 0.02049996,19.0893 L 0,49.6075 c 0,4.209388 3.422993,7.634274 7.6323594,7.634274 H 53.424516 c 4.209366,0 7.632359,-3.423011 7.632359,-7.632399 V 19.079776 C 61.05675,14.870511 57.633757,11.4475 53.424516,11.4475 Z M 30.527438,47.701244 c -8.416858,0 -15.264719,-6.847898 -15.264719,-15.2648 0,-8.416902 6.847861,-15.2648 15.264719,-15.2648 8.416857,0 15.264718,6.847898 15.264718,15.2648 0,8.416902 -6.847861,15.2648 -15.264718,15.2648 z"
     id="path5286"
     inkscape:connector-curvature="0"
     style="stroke-width:0.12500007" />
</svg>
