<?xml version="1.0" encoding="UTF-8" standalone="no"?>
<!-- Generator: Adobe Illustrator 19.0.0, SVG Export Plug-In . SVG Version: 6.00 Build 0)  -->

<svg
   xmlns:dc="http://purl.org/dc/elements/1.1/"
   xmlns:cc="http://creativecommons.org/ns#"
   xmlns:rdf="http://www.w3.org/1999/02/22-rdf-syntax-ns#"
   xmlns:svg="http://www.w3.org/2000/svg"
   xmlns="http://www.w3.org/2000/svg"
   xmlns:sodipodi="http://sodipodi.sourceforge.net/DTD/sodipodi-0.dtd"
   xmlns:inkscape="http://www.inkscape.org/namespaces/inkscape"
   version="1.1"
   id="Capa_1"
   x="0px"
   y="0px"
   viewBox="0 0 63.999998 63.999998"
   xml:space="preserve"
   sodipodi:docname="mic_off.svg"
   width="64"
   height="64"
   inkscape:version="0.92.4 (5da689c313, 2019-01-14)"
   inkscape:export-filename="C:\git\coronachat2\src\assets\images\mic_on.png"
   inkscape:export-xdpi="96"
   inkscape:export-ydpi="96"><metadata
   id="metadata3921"><rdf:RDF><cc:Work
       rdf:about=""><dc:format>image/svg+xml</dc:format><dc:type
         rdf:resource="http://purl.org/dc/dcmitype/StillImage" /><dc:title></dc:title></cc:Work></rdf:RDF></metadata><defs
   id="defs3919" /><sodipodi:namedview
   pagecolor="#ffffff"
   bordercolor="#666666"
   borderopacity="1"
   objecttolerance="10"
   gridtolerance="10"
   guidetolerance="10"
   inkscape:pageopacity="0"
   inkscape:pageshadow="2"
   inkscape:window-width="2560"
   inkscape:window-height="1377"
   id="namedview3917"
   showgrid="false"
   inkscape:zoom="12.270382"
   inkscape:cx="15.021139"
   inkscape:cy="35.81871"
   inkscape:window-x="-8"
   inkscape:window-y="-8"
   inkscape:window-maximized="1"
   inkscape:current-layer="Capa_1" />
<g
   id="g3878"
   transform="matrix(0.14705882,0,0,0.14705882,2.7647999e-7,1.536e-6)">
	<g
   id="g3876">
		<path
   d="m 356.864,224.768 c 0,-8.704 -6.656,-15.36 -15.36,-15.36 -8.704,0 -15.36,6.656 -15.36,15.36 0,59.904 -48.64,108.544 -108.544,108.544 -59.904,0 -108.544,-48.64 -108.544,-108.544 0,-8.704 -6.656,-15.36 -15.36,-15.36 -8.704,0 -15.36,6.656 -15.36,15.36 0,71.168 53.248,131.072 123.904,138.752 v 40.96 h -55.808 c -8.704,0 -15.36,6.656 -15.36,15.36 0,8.704 6.656,15.36 15.36,15.36 h 142.336 c 8.704,0 15.36,-6.656 15.36,-15.36 0,-8.704 -6.656,-15.36 -15.36,-15.36 H 232.96 v -40.96 c 70.656,-7.68 123.904,-67.584 123.904,-138.752 z"
   id="path3874"
   inkscape:connector-curvature="0" />
	</g>
</g>
<g
   id="g3884"
   transform="matrix(0.14705882,0,0,0.14705882,2.7647999e-7,1.536e-6)">
	<g
   id="g3882">
		<path
   d="m 217.6,0 c -47.104,0 -85.504,38.4 -85.504,85.504 v 138.752 c 0,47.616 38.4,85.504 85.504,86.016 47.104,0 85.504,-38.4 85.504,-85.504 V 85.504 C 303.104,38.4 264.704,0 217.6,0 Z"
   id="path3880"
   inkscape:connector-curvature="0" />
	</g>
</g>
<g
   id="g3886"
   transform="translate(0,-371.20001)">
</g>
<g
   id="g3888"
   transform="translate(0,-371.20001)">
</g>
<g
   id="g3890"
   transform="translate(0,-371.20001)">
</g>
<g
   id="g3892"
   transform="translate(0,-371.20001)">
</g>
<g
   id="g3894"
   transform="translate(0,-371.20001)">
</g>
<g
   id="g3896"
   transform="translate(0,-371.20001)">
</g>
<g
   id="g3898"
   transform="translate(0,-371.20001)">
</g>
<g
   id="g3900"
   transform="translate(0,-371.20001)">
</g>
<g
   id="g3902"
   transform="translate(0,-371.20001)">
</g>
<g
   id="g3904"
   transform="translate(0,-371.20001)">
</g>
<g
   id="g3906"
   transform="translate(0,-371.20001)">
</g>
<g
   id="g3908"
   transform="translate(0,-371.20001)">
</g>
<g
   id="g3910"
   transform="translate(0,-371.20001)">
</g>
<g
   id="g3912"
   transform="translate(0,-371.20001)">
</g>
<g
   id="g3914"
   transform="translate(0,-371.20001)">
</g>
<rect
   style="fill:#ff2a2a;stroke-width:1.40509641"
   id="rect3923"
   width="82.90612"
   height="1.9466907"
   x="-41.453064"
   y="44.281487"
   transform="rotate(-45.000001)" /></svg>